solid OpenSCAD_Model
  facet normal -1 0 0
    outer loop
      vertex -25.4 -50.8 -474.6
      vertex -25.4 50.8 -50.8
      vertex -25.4 50.8 -474.6
    endloop
  endfacet
  facet normal -1 -0 0
    outer loop
      vertex -25.4 50.8 -50.8
      vertex -25.4 -50.8 -474.6
      vertex -25.4 50.8 50.8
    endloop
  endfacet
  facet normal -1 0 0
    outer loop
      vertex -25.4 -50.8 500
      vertex -25.4 50.8 50.8
      vertex -25.4 -50.8 -474.6
    endloop
  endfacet
  facet normal -1 0 0
    outer loop
      vertex -25.4 50.8 -50.8
      vertex -25.4 152.4 50.8
      vertex -25.4 152.4 -50.8
    endloop
  endfacet
  facet normal -1 -0 0
    outer loop
      vertex -25.4 152.4 50.8
      vertex -25.4 50.8 -50.8
      vertex -25.4 50.8 50.8
    endloop
  endfacet
  facet normal -1 0 0
    outer loop
      vertex -25.4 152.4 -50.8
      vertex -25.4 254 -474.6
      vertex -25.4 152.4 -474.6
    endloop
  endfacet
  facet normal -1 0 0
    outer loop
      vertex -25.4 152.4 50.8
      vertex -25.4 254 -474.6
      vertex -25.4 152.4 -50.8
    endloop
  endfacet
  facet normal -1 0 0
    outer loop
      vertex -25.4 254 -474.6
      vertex -25.4 152.4 50.8
      vertex -25.4 254 500
    endloop
  endfacet
  facet normal -1 0 0
    outer loop
      vertex -25.4 152.4 398.4
      vertex -25.4 254 500
      vertex -25.4 152.4 50.8
    endloop
  endfacet
  facet normal -1 0 0
    outer loop
      vertex -25.4 50.8 398.4
      vertex -25.4 254 500
      vertex -25.4 152.4 398.4
    endloop
  endfacet
  facet normal -1 0 0
    outer loop
      vertex -25.4 50.8 398.4
      vertex -25.4 -50.8 500
      vertex -25.4 254 500
    endloop
  endfacet
  facet normal -1 0 0
    outer loop
      vertex -25.4 50.8 50.8
      vertex -25.4 -50.8 500
      vertex -25.4 50.8 398.4
    endloop
  endfacet
  facet normal 1 -0 0
    outer loop
      vertex 25.4 50.8 50.8
      vertex 25.4 152.4 -50.8
      vertex 25.4 152.4 50.8
    endloop
  endfacet
  facet normal 1 0 0
    outer loop
      vertex 25.4 152.4 -50.8
      vertex 25.4 50.8 50.8
      vertex 25.4 50.8 -50.8
    endloop
  endfacet
  facet normal 1 0 0
    outer loop
      vertex 25.4 152.4 50.8
      vertex 25.4 254 500
      vertex 25.4 152.4 398.4
    endloop
  endfacet
  facet normal 1 0 0
    outer loop
      vertex 25.4 254 500
      vertex 25.4 50.8 398.4
      vertex 25.4 152.4 398.4
    endloop
  endfacet
  facet normal 1 0 0
    outer loop
      vertex 25.4 -50.8 500
      vertex 25.4 50.8 50.8
      vertex 25.4 50.8 398.4
    endloop
  endfacet
  facet normal 1 0 0
    outer loop
      vertex 25.4 -50.8 -474.6
      vertex 25.4 50.8 50.8
      vertex 25.4 -50.8 500
    endloop
  endfacet
  facet normal 1 -0 0
    outer loop
      vertex 25.4 -50.8 500
      vertex 25.4 50.8 398.4
      vertex 25.4 254 500
    endloop
  endfacet
  facet normal 1 0 0
    outer loop
      vertex 25.4 50.8 50.8
      vertex 25.4 -50.8 -474.6
      vertex 25.4 50.8 -50.8
    endloop
  endfacet
  facet normal 1 0 0
    outer loop
      vertex 25.4 50.8 -50.8
      vertex 25.4 -50.8 -474.6
      vertex 25.4 50.8 -474.6
    endloop
  endfacet
  facet normal 1 0 0
    outer loop
      vertex 25.4 254 500
      vertex 25.4 152.4 50.8
      vertex 25.4 254 -474.6
    endloop
  endfacet
  facet normal 1 -0 0
    outer loop
      vertex 25.4 152.4 -50.8
      vertex 25.4 254 -474.6
      vertex 25.4 152.4 50.8
    endloop
  endfacet
  facet normal 1 0 0
    outer loop
      vertex 25.4 254 -474.6
      vertex 25.4 152.4 -50.8
      vertex 25.4 152.4 -474.6
    endloop
  endfacet
  facet normal 0 0 -1
    outer loop
      vertex -25.4 50.8 -50.8
      vertex 25.4 152.4 -50.8
      vertex 25.4 50.8 -50.8
    endloop
  endfacet
  facet normal -0 0 -1
    outer loop
      vertex 25.4 152.4 -50.8
      vertex -25.4 50.8 -50.8
      vertex -25.4 152.4 -50.8
    endloop
  endfacet
  facet normal -0 0 1
    outer loop
      vertex -25.4 152.4 50.8
      vertex 25.4 50.8 50.8
      vertex 25.4 152.4 50.8
    endloop
  endfacet
  facet normal 0 0 1
    outer loop
      vertex 25.4 50.8 50.8
      vertex -25.4 152.4 50.8
      vertex -25.4 50.8 50.8
    endloop
  endfacet
  facet normal 0 0 -1
    outer loop
      vertex -25.4 50.8 398.4
      vertex 25.4 152.4 398.4
      vertex 25.4 50.8 398.4
    endloop
  endfacet
  facet normal -0 0 -1
    outer loop
      vertex 25.4 152.4 398.4
      vertex -25.4 50.8 398.4
      vertex -25.4 152.4 398.4
    endloop
  endfacet
  facet normal -0 0 1
    outer loop
      vertex -25.4 254 500
      vertex 25.4 -50.8 500
      vertex 25.4 254 500
    endloop
  endfacet
  facet normal 0 0 1
    outer loop
      vertex 25.4 -50.8 500
      vertex -25.4 254 500
      vertex -25.4 -50.8 500
    endloop
  endfacet
  facet normal 0 1 -0
    outer loop
      vertex 25.4 50.8 -474.6
      vertex -25.4 50.8 -50.8
      vertex 25.4 50.8 -50.8
    endloop
  endfacet
  facet normal 0 1 0
    outer loop
      vertex -25.4 50.8 -50.8
      vertex 25.4 50.8 -474.6
      vertex -25.4 50.8 -474.6
    endloop
  endfacet
  facet normal 0 1 -0
    outer loop
      vertex 25.4 50.8 50.8
      vertex -25.4 50.8 398.4
      vertex 25.4 50.8 398.4
    endloop
  endfacet
  facet normal 0 1 0
    outer loop
      vertex -25.4 50.8 398.4
      vertex 25.4 50.8 50.8
      vertex -25.4 50.8 50.8
    endloop
  endfacet
  facet normal 0 -1 0
    outer loop
      vertex -50.8 -50.8 -525.4
      vertex -25.4 -50.8 -474.6
      vertex -50.8 -50.8 -474.6
    endloop
  endfacet
  facet normal 0 -1 -0
    outer loop
      vertex -25.4 -50.8 -474.6
      vertex -50.8 -50.8 -525.4
      vertex 25.4 -50.8 -474.6
    endloop
  endfacet
  facet normal 0 -1 0
    outer loop
      vertex 349.2 -50.8 -525.4
      vertex 25.4 -50.8 -474.6
      vertex -50.8 -50.8 -525.4
    endloop
  endfacet
  facet normal 0 -1 0
    outer loop
      vertex 25.4 -50.8 -474.6
      vertex 349.2 -50.8 -525.4
      vertex 349.2 -50.8 -474.6
    endloop
  endfacet
  facet normal 0 -1 0
    outer loop
      vertex -25.4 -50.8 -474.6
      vertex 25.4 -50.8 500
      vertex -25.4 -50.8 500
    endloop
  endfacet
  facet normal 0 -1 -0
    outer loop
      vertex 25.4 -50.8 500
      vertex -25.4 -50.8 -474.6
      vertex 25.4 -50.8 -474.6
    endloop
  endfacet
  facet normal 0 1 -0
    outer loop
      vertex 25.4 254 -474.6
      vertex -25.4 254 500
      vertex 25.4 254 500
    endloop
  endfacet
  facet normal 0 1 0
    outer loop
      vertex -25.4 254 500
      vertex 25.4 254 -474.6
      vertex -25.4 254 -474.6
    endloop
  endfacet
  facet normal 0 -1 0
    outer loop
      vertex -25.4 152.4 -474.6
      vertex 25.4 152.4 -50.8
      vertex -25.4 152.4 -50.8
    endloop
  endfacet
  facet normal 0 -1 -0
    outer loop
      vertex 25.4 152.4 -50.8
      vertex -25.4 152.4 -474.6
      vertex 25.4 152.4 -474.6
    endloop
  endfacet
  facet normal 0 -1 0
    outer loop
      vertex -25.4 152.4 50.8
      vertex 25.4 152.4 398.4
      vertex -25.4 152.4 398.4
    endloop
  endfacet
  facet normal 0 -1 -0
    outer loop
      vertex 25.4 152.4 398.4
      vertex -25.4 152.4 50.8
      vertex 25.4 152.4 50.8
    endloop
  endfacet
  facet normal -0 0 1
    outer loop
      vertex -25.4 152.4 -474.6
      vertex 25.4 50.8 -474.6
      vertex 25.4 152.4 -474.6
    endloop
  endfacet
  facet normal 0 0 1
    outer loop
      vertex 25.4 50.8 -474.6
      vertex -25.4 152.4 -474.6
      vertex -25.4 50.8 -474.6
    endloop
  endfacet
  facet normal 0 0 1
    outer loop
      vertex 25.4 152.4 -474.6
      vertex 50.8 349.2 -474.6
      vertex 25.4 254 -474.6
    endloop
  endfacet
  facet normal 0 0 1
    outer loop
      vertex 50.8 349.2 -474.6
      vertex -25.4 254 -474.6
      vertex 25.4 254 -474.6
    endloop
  endfacet
  facet normal 0 0 1
    outer loop
      vertex -50.8 349.2 -474.6
      vertex -25.4 152.4 -474.6
      vertex -25.4 254 -474.6
    endloop
  endfacet
  facet normal 0 0 1
    outer loop
      vertex -50.8 -50.8 -474.6
      vertex -25.4 152.4 -474.6
      vertex -50.8 349.2 -474.6
    endloop
  endfacet
  facet normal -0 0 1
    outer loop
      vertex -50.8 349.2 -474.6
      vertex -25.4 254 -474.6
      vertex 50.8 349.2 -474.6
    endloop
  endfacet
  facet normal 0 0 1
    outer loop
      vertex -25.4 152.4 -474.6
      vertex -50.8 -50.8 -474.6
      vertex -25.4 50.8 -474.6
    endloop
  endfacet
  facet normal 0 0 1
    outer loop
      vertex -25.4 50.8 -474.6
      vertex -50.8 -50.8 -474.6
      vertex -25.4 -50.8 -474.6
    endloop
  endfacet
  facet normal -0 0 1
    outer loop
      vertex 50.8 50.8 -474.6
      vertex 349.2 -50.8 -474.6
      vertex 349.2 50.8 -474.6
    endloop
  endfacet
  facet normal 0 0 1
    outer loop
      vertex 50.8 349.2 -474.6
      vertex 25.4 152.4 -474.6
      vertex 50.8 50.8 -474.6
    endloop
  endfacet
  facet normal 0 0 1
    outer loop
      vertex 25.4 50.8 -474.6
      vertex 50.8 50.8 -474.6
      vertex 25.4 152.4 -474.6
    endloop
  endfacet
  facet normal 0 0 1
    outer loop
      vertex 25.4 -50.8 -474.6
      vertex 50.8 50.8 -474.6
      vertex 25.4 50.8 -474.6
    endloop
  endfacet
  facet normal 0 0 1
    outer loop
      vertex 50.8 50.8 -474.6
      vertex 25.4 -50.8 -474.6
      vertex 349.2 -50.8 -474.6
    endloop
  endfacet
  facet normal 0 1 -0
    outer loop
      vertex 50.8 349.2 -525.4
      vertex -50.8 349.2 -474.6
      vertex 50.8 349.2 -474.6
    endloop
  endfacet
  facet normal 0 1 0
    outer loop
      vertex -50.8 349.2 -474.6
      vertex 50.8 349.2 -525.4
      vertex -50.8 349.2 -525.4
    endloop
  endfacet
  facet normal -1 0 0
    outer loop
      vertex -50.8 -50.8 -525.4
      vertex -50.8 349.2 -474.6
      vertex -50.8 349.2 -525.4
    endloop
  endfacet
  facet normal -1 -0 0
    outer loop
      vertex -50.8 349.2 -474.6
      vertex -50.8 -50.8 -525.4
      vertex -50.8 -50.8 -474.6
    endloop
  endfacet
  facet normal 1 -0 0
    outer loop
      vertex 50.8 50.8 -474.6
      vertex 50.8 349.2 -525.4
      vertex 50.8 349.2 -474.6
    endloop
  endfacet
  facet normal 1 0 0
    outer loop
      vertex 50.8 349.2 -525.4
      vertex 50.8 50.8 -474.6
      vertex 50.8 50.8 -525.4
    endloop
  endfacet
  facet normal 0 0 -1
    outer loop
      vertex 349.2 -50.8 -525.4
      vertex 50.8 50.8 -525.4
      vertex 349.2 50.8 -525.4
    endloop
  endfacet
  facet normal 0 0 -1
    outer loop
      vertex -50.8 -50.8 -525.4
      vertex 50.8 50.8 -525.4
      vertex 349.2 -50.8 -525.4
    endloop
  endfacet
  facet normal 0 0 -1
    outer loop
      vertex -50.8 349.2 -525.4
      vertex 50.8 50.8 -525.4
      vertex -50.8 -50.8 -525.4
    endloop
  endfacet
  facet normal 0 0 -1
    outer loop
      vertex 50.8 50.8 -525.4
      vertex -50.8 349.2 -525.4
      vertex 50.8 349.2 -525.4
    endloop
  endfacet
  facet normal 1 -0 0
    outer loop
      vertex 349.2 -50.8 -474.6
      vertex 349.2 50.8 -525.4
      vertex 349.2 50.8 -474.6
    endloop
  endfacet
  facet normal 1 0 0
    outer loop
      vertex 349.2 50.8 -525.4
      vertex 349.2 -50.8 -474.6
      vertex 349.2 -50.8 -525.4
    endloop
  endfacet
  facet normal 0 1 -0
    outer loop
      vertex 349.2 50.8 -525.4
      vertex 50.8 50.8 -474.6
      vertex 349.2 50.8 -474.6
    endloop
  endfacet
  facet normal 0 1 0
    outer loop
      vertex 50.8 50.8 -474.6
      vertex 349.2 50.8 -525.4
      vertex 50.8 50.8 -525.4
    endloop
  endfacet
  facet normal -1 0 0
    outer loop
      vertex -25.4 949.2 -474.6
      vertex -25.4 1050.8 -50.8
      vertex -25.4 1050.8 -474.6
    endloop
  endfacet
  facet normal -1 -0 0
    outer loop
      vertex -25.4 1050.8 -50.8
      vertex -25.4 949.2 -474.6
      vertex -25.4 1050.8 50.8
    endloop
  endfacet
  facet normal -1 0 0
    outer loop
      vertex -25.4 949.2 500
      vertex -25.4 1050.8 50.8
      vertex -25.4 949.2 -474.6
    endloop
  endfacet
  facet normal -1 0 0
    outer loop
      vertex -25.4 1050.8 -50.8
      vertex -25.4 1152.4 50.8
      vertex -25.4 1152.4 -50.8
    endloop
  endfacet
  facet normal -1 -0 0
    outer loop
      vertex -25.4 1152.4 50.8
      vertex -25.4 1050.8 -50.8
      vertex -25.4 1050.8 50.8
    endloop
  endfacet
  facet normal -1 0 0
    outer loop
      vertex -25.4 1152.4 -50.8
      vertex -25.4 1254 -474.6
      vertex -25.4 1152.4 -474.6
    endloop
  endfacet
  facet normal -1 0 0
    outer loop
      vertex -25.4 1152.4 50.8
      vertex -25.4 1254 -474.6
      vertex -25.4 1152.4 -50.8
    endloop
  endfacet
  facet normal -1 0 0
    outer loop
      vertex -25.4 1254 -474.6
      vertex -25.4 1152.4 50.8
      vertex -25.4 1254 500
    endloop
  endfacet
  facet normal -1 0 0
    outer loop
      vertex -25.4 1152.4 398.4
      vertex -25.4 1254 500
      vertex -25.4 1152.4 50.8
    endloop
  endfacet
  facet normal -1 0 0
    outer loop
      vertex -25.4 1050.8 398.4
      vertex -25.4 1254 500
      vertex -25.4 1152.4 398.4
    endloop
  endfacet
  facet normal -1 0 0
    outer loop
      vertex -25.4 1050.8 398.4
      vertex -25.4 949.2 500
      vertex -25.4 1254 500
    endloop
  endfacet
  facet normal -1 0 0
    outer loop
      vertex -25.4 1050.8 50.8
      vertex -25.4 949.2 500
      vertex -25.4 1050.8 398.4
    endloop
  endfacet
  facet normal 1 -0 0
    outer loop
      vertex 25.4 1050.8 50.8
      vertex 25.4 1152.4 -50.8
      vertex 25.4 1152.4 50.8
    endloop
  endfacet
  facet normal 1 0 0
    outer loop
      vertex 25.4 1152.4 -50.8
      vertex 25.4 1050.8 50.8
      vertex 25.4 1050.8 -50.8
    endloop
  endfacet
  facet normal 1 0 0
    outer loop
      vertex 25.4 1152.4 50.8
      vertex 25.4 1254 500
      vertex 25.4 1152.4 398.4
    endloop
  endfacet
  facet normal 1 0 0
    outer loop
      vertex 25.4 1254 500
      vertex 25.4 1050.8 398.4
      vertex 25.4 1152.4 398.4
    endloop
  endfacet
  facet normal 1 0 0
    outer loop
      vertex 25.4 949.2 500
      vertex 25.4 1050.8 50.8
      vertex 25.4 1050.8 398.4
    endloop
  endfacet
  facet normal 1 0 0
    outer loop
      vertex 25.4 949.2 -474.6
      vertex 25.4 1050.8 50.8
      vertex 25.4 949.2 500
    endloop
  endfacet
  facet normal 1 -0 0
    outer loop
      vertex 25.4 949.2 500
      vertex 25.4 1050.8 398.4
      vertex 25.4 1254 500
    endloop
  endfacet
  facet normal 1 0 0
    outer loop
      vertex 25.4 1050.8 50.8
      vertex 25.4 949.2 -474.6
      vertex 25.4 1050.8 -50.8
    endloop
  endfacet
  facet normal 1 0 0
    outer loop
      vertex 25.4 1050.8 -50.8
      vertex 25.4 949.2 -474.6
      vertex 25.4 1050.8 -474.6
    endloop
  endfacet
  facet normal 1 0 0
    outer loop
      vertex 25.4 1254 500
      vertex 25.4 1152.4 50.8
      vertex 25.4 1254 -474.6
    endloop
  endfacet
  facet normal 1 -0 0
    outer loop
      vertex 25.4 1152.4 -50.8
      vertex 25.4 1254 -474.6
      vertex 25.4 1152.4 50.8
    endloop
  endfacet
  facet normal 1 0 0
    outer loop
      vertex 25.4 1254 -474.6
      vertex 25.4 1152.4 -50.8
      vertex 25.4 1152.4 -474.6
    endloop
  endfacet
  facet normal 0 0 -1
    outer loop
      vertex -25.4 1050.8 -50.8
      vertex 25.4 1152.4 -50.8
      vertex 25.4 1050.8 -50.8
    endloop
  endfacet
  facet normal -0 0 -1
    outer loop
      vertex 25.4 1152.4 -50.8
      vertex -25.4 1050.8 -50.8
      vertex -25.4 1152.4 -50.8
    endloop
  endfacet
  facet normal -0 0 1
    outer loop
      vertex -25.4 1152.4 50.8
      vertex 25.4 1050.8 50.8
      vertex 25.4 1152.4 50.8
    endloop
  endfacet
  facet normal 0 0 1
    outer loop
      vertex 25.4 1050.8 50.8
      vertex -25.4 1152.4 50.8
      vertex -25.4 1050.8 50.8
    endloop
  endfacet
  facet normal 0 0 -1
    outer loop
      vertex -25.4 1050.8 398.4
      vertex 25.4 1152.4 398.4
      vertex 25.4 1050.8 398.4
    endloop
  endfacet
  facet normal -0 0 -1
    outer loop
      vertex 25.4 1152.4 398.4
      vertex -25.4 1050.8 398.4
      vertex -25.4 1152.4 398.4
    endloop
  endfacet
  facet normal -0 0 1
    outer loop
      vertex -25.4 1254 500
      vertex 25.4 949.2 500
      vertex 25.4 1254 500
    endloop
  endfacet
  facet normal 0 0 1
    outer loop
      vertex 25.4 949.2 500
      vertex -25.4 1254 500
      vertex -25.4 949.2 500
    endloop
  endfacet
  facet normal 0 1 -0
    outer loop
      vertex 25.4 1050.8 -474.6
      vertex -25.4 1050.8 -50.8
      vertex 25.4 1050.8 -50.8
    endloop
  endfacet
  facet normal 0 1 0
    outer loop
      vertex -25.4 1050.8 -50.8
      vertex 25.4 1050.8 -474.6
      vertex -25.4 1050.8 -474.6
    endloop
  endfacet
  facet normal 0 1 -0
    outer loop
      vertex 25.4 1050.8 50.8
      vertex -25.4 1050.8 398.4
      vertex 25.4 1050.8 398.4
    endloop
  endfacet
  facet normal 0 1 0
    outer loop
      vertex -25.4 1050.8 398.4
      vertex 25.4 1050.8 50.8
      vertex -25.4 1050.8 50.8
    endloop
  endfacet
  facet normal 0 -1 0
    outer loop
      vertex -25.4 949.2 -474.6
      vertex 25.4 949.2 500
      vertex -25.4 949.2 500
    endloop
  endfacet
  facet normal 0 -1 -0
    outer loop
      vertex 25.4 949.2 500
      vertex -25.4 949.2 -474.6
      vertex 25.4 949.2 -474.6
    endloop
  endfacet
  facet normal 0 1 -0
    outer loop
      vertex 25.4 1254 -474.6
      vertex -25.4 1254 500
      vertex 25.4 1254 500
    endloop
  endfacet
  facet normal 0 1 0
    outer loop
      vertex -25.4 1254 500
      vertex 25.4 1254 -474.6
      vertex -25.4 1254 -474.6
    endloop
  endfacet
  facet normal 0 -1 0
    outer loop
      vertex -25.4 1152.4 -474.6
      vertex 25.4 1152.4 -50.8
      vertex -25.4 1152.4 -50.8
    endloop
  endfacet
  facet normal 0 -1 -0
    outer loop
      vertex 25.4 1152.4 -50.8
      vertex -25.4 1152.4 -474.6
      vertex 25.4 1152.4 -474.6
    endloop
  endfacet
  facet normal 0 -1 0
    outer loop
      vertex -25.4 1152.4 50.8
      vertex 25.4 1152.4 398.4
      vertex -25.4 1152.4 398.4
    endloop
  endfacet
  facet normal 0 -1 -0
    outer loop
      vertex 25.4 1152.4 398.4
      vertex -25.4 1152.4 50.8
      vertex 25.4 1152.4 50.8
    endloop
  endfacet
  facet normal -0 0 1
    outer loop
      vertex -25.4 1152.4 -474.6
      vertex 25.4 1050.8 -474.6
      vertex 25.4 1152.4 -474.6
    endloop
  endfacet
  facet normal 0 0 1
    outer loop
      vertex 25.4 1050.8 -474.6
      vertex -25.4 1152.4 -474.6
      vertex -25.4 1050.8 -474.6
    endloop
  endfacet
  facet normal 0 0 1
    outer loop
      vertex 25.4 1152.4 -474.6
      vertex 50.8 1401.6 -474.6
      vertex 25.4 1254 -474.6
    endloop
  endfacet
  facet normal 0 0 1
    outer loop
      vertex 50.8 1401.6 -474.6
      vertex -25.4 1254 -474.6
      vertex 25.4 1254 -474.6
    endloop
  endfacet
  facet normal 0 0 1
    outer loop
      vertex -50.8 1401.6 -474.6
      vertex -25.4 1152.4 -474.6
      vertex -25.4 1254 -474.6
    endloop
  endfacet
  facet normal 0 0 1
    outer loop
      vertex -25.4 1152.4 -474.6
      vertex -50.8 1401.6 -474.6
      vertex -25.4 1050.8 -474.6
    endloop
  endfacet
  facet normal 0 0 1
    outer loop
      vertex -50.8 801.6 -474.6
      vertex -25.4 1050.8 -474.6
      vertex -50.8 1401.6 -474.6
    endloop
  endfacet
  facet normal -0 0 1
    outer loop
      vertex -50.8 1401.6 -474.6
      vertex -25.4 1254 -474.6
      vertex 50.8 1401.6 -474.6
    endloop
  endfacet
  facet normal 0 0 1
    outer loop
      vertex 50.8 1401.6 -474.6
      vertex 25.4 1152.4 -474.6
      vertex 50.8 801.6 -474.6
    endloop
  endfacet
  facet normal -0 0 1
    outer loop
      vertex 25.4 1050.8 -474.6
      vertex 50.8 801.6 -474.6
      vertex 25.4 1152.4 -474.6
    endloop
  endfacet
  facet normal -0 0 1
    outer loop
      vertex 25.4 949.2 -474.6
      vertex 50.8 801.6 -474.6
      vertex 25.4 1050.8 -474.6
    endloop
  endfacet
  facet normal -0 0 1
    outer loop
      vertex -25.4 949.2 -474.6
      vertex 50.8 801.6 -474.6
      vertex 25.4 949.2 -474.6
    endloop
  endfacet
  facet normal 0 0 1
    outer loop
      vertex -25.4 949.2 -474.6
      vertex -50.8 801.6 -474.6
      vertex 50.8 801.6 -474.6
    endloop
  endfacet
  facet normal 0 0 1
    outer loop
      vertex -25.4 1050.8 -474.6
      vertex -50.8 801.6 -474.6
      vertex -25.4 949.2 -474.6
    endloop
  endfacet
  facet normal 0 -1 0
    outer loop
      vertex -50.8 801.6 -525.4
      vertex 50.8 801.6 -474.6
      vertex -50.8 801.6 -474.6
    endloop
  endfacet
  facet normal 0 -1 -0
    outer loop
      vertex 50.8 801.6 -474.6
      vertex -50.8 801.6 -525.4
      vertex 50.8 801.6 -525.4
    endloop
  endfacet
  facet normal 0 1 -0
    outer loop
      vertex 50.8 1401.6 -525.4
      vertex -50.8 1401.6 -474.6
      vertex 50.8 1401.6 -474.6
    endloop
  endfacet
  facet normal 0 1 0
    outer loop
      vertex -50.8 1401.6 -474.6
      vertex 50.8 1401.6 -525.4
      vertex -50.8 1401.6 -525.4
    endloop
  endfacet
  facet normal -1 0 0
    outer loop
      vertex -50.8 801.6 -525.4
      vertex -50.8 1401.6 -474.6
      vertex -50.8 1401.6 -525.4
    endloop
  endfacet
  facet normal -1 -0 0
    outer loop
      vertex -50.8 1401.6 -474.6
      vertex -50.8 801.6 -525.4
      vertex -50.8 801.6 -474.6
    endloop
  endfacet
  facet normal 1 -0 0
    outer loop
      vertex 50.8 801.6 -474.6
      vertex 50.8 1401.6 -525.4
      vertex 50.8 1401.6 -474.6
    endloop
  endfacet
  facet normal 1 0 0
    outer loop
      vertex 50.8 1401.6 -525.4
      vertex 50.8 801.6 -474.6
      vertex 50.8 801.6 -525.4
    endloop
  endfacet
  facet normal 0 0 -1
    outer loop
      vertex -50.8 801.6 -525.4
      vertex 50.8 1401.6 -525.4
      vertex 50.8 801.6 -525.4
    endloop
  endfacet
  facet normal -0 0 -1
    outer loop
      vertex 50.8 1401.6 -525.4
      vertex -50.8 801.6 -525.4
      vertex -50.8 1401.6 -525.4
    endloop
  endfacet
endsolid OpenSCAD_Model
