solid OpenSCAD_Model
  facet normal -1 0 0
    outer loop
      vertex -25.4 -50.8 -1099.6
      vertex -25.4 50.8 -50.8
      vertex -25.4 50.8 -1099.6
    endloop
  endfacet
  facet normal -1 -0 0
    outer loop
      vertex -25.4 50.8 -50.8
      vertex -25.4 -50.8 -1099.6
      vertex -25.4 50.8 50.8
    endloop
  endfacet
  facet normal -1 0 0
    outer loop
      vertex -25.4 -50.8 1125
      vertex -25.4 50.8 50.8
      vertex -25.4 -50.8 -1099.6
    endloop
  endfacet
  facet normal -1 0 0
    outer loop
      vertex -25.4 50.8 -50.8
      vertex -25.4 152.4 50.8
      vertex -25.4 152.4 -50.8
    endloop
  endfacet
  facet normal -1 -0 0
    outer loop
      vertex -25.4 152.4 50.8
      vertex -25.4 50.8 -50.8
      vertex -25.4 50.8 50.8
    endloop
  endfacet
  facet normal -1 0 0
    outer loop
      vertex -25.4 152.4 -50.8
      vertex -25.4 254 -1099.6
      vertex -25.4 152.4 -1099.6
    endloop
  endfacet
  facet normal -1 0 0
    outer loop
      vertex -25.4 254 -1099.6
      vertex -25.4 152.4 -50.8
      vertex -25.4 254 1125
    endloop
  endfacet
  facet normal -1 0 0
    outer loop
      vertex -25.4 152.4 50.8
      vertex -25.4 254 1125
      vertex -25.4 152.4 -50.8
    endloop
  endfacet
  facet normal -1 0 0
    outer loop
      vertex -25.4 152.4 1023.4
      vertex -25.4 254 1125
      vertex -25.4 152.4 50.8
    endloop
  endfacet
  facet normal -1 0 0
    outer loop
      vertex -25.4 50.8 1023.4
      vertex -25.4 254 1125
      vertex -25.4 152.4 1023.4
    endloop
  endfacet
  facet normal -1 0 0
    outer loop
      vertex -25.4 50.8 1023.4
      vertex -25.4 -50.8 1125
      vertex -25.4 254 1125
    endloop
  endfacet
  facet normal -1 0 0
    outer loop
      vertex -25.4 50.8 50.8
      vertex -25.4 -50.8 1125
      vertex -25.4 50.8 1023.4
    endloop
  endfacet
  facet normal 1 -0 0
    outer loop
      vertex 25.4 50.8 50.8
      vertex 25.4 152.4 -50.8
      vertex 25.4 152.4 50.8
    endloop
  endfacet
  facet normal 1 0 0
    outer loop
      vertex 25.4 152.4 -50.8
      vertex 25.4 50.8 50.8
      vertex 25.4 50.8 -50.8
    endloop
  endfacet
  facet normal 1 0 0
    outer loop
      vertex 25.4 152.4 50.8
      vertex 25.4 254 1125
      vertex 25.4 152.4 1023.4
    endloop
  endfacet
  facet normal 1 0 0
    outer loop
      vertex 25.4 254 1125
      vertex 25.4 50.8 1023.4
      vertex 25.4 152.4 1023.4
    endloop
  endfacet
  facet normal 1 0 0
    outer loop
      vertex 25.4 -50.8 1125
      vertex 25.4 50.8 50.8
      vertex 25.4 50.8 1023.4
    endloop
  endfacet
  facet normal 1 0 0
    outer loop
      vertex 25.4 50.8 50.8
      vertex 25.4 -50.8 1125
      vertex 25.4 50.8 -50.8
    endloop
  endfacet
  facet normal 1 -0 0
    outer loop
      vertex 25.4 -50.8 1125
      vertex 25.4 50.8 1023.4
      vertex 25.4 254 1125
    endloop
  endfacet
  facet normal 1 0 0
    outer loop
      vertex 25.4 50.8 -50.8
      vertex 25.4 -50.8 1125
      vertex 25.4 -50.8 -1099.6
    endloop
  endfacet
  facet normal 1 0 0
    outer loop
      vertex 25.4 50.8 -50.8
      vertex 25.4 -50.8 -1099.6
      vertex 25.4 50.8 -1099.6
    endloop
  endfacet
  facet normal 1 0 0
    outer loop
      vertex 25.4 254 1125
      vertex 25.4 152.4 50.8
      vertex 25.4 254 -1099.6
    endloop
  endfacet
  facet normal 1 -0 0
    outer loop
      vertex 25.4 152.4 -50.8
      vertex 25.4 254 -1099.6
      vertex 25.4 152.4 50.8
    endloop
  endfacet
  facet normal 1 0 0
    outer loop
      vertex 25.4 254 -1099.6
      vertex 25.4 152.4 -50.8
      vertex 25.4 152.4 -1099.6
    endloop
  endfacet
  facet normal 0 0 -1
    outer loop
      vertex -25.4 50.8 -50.8
      vertex 25.4 152.4 -50.8
      vertex 25.4 50.8 -50.8
    endloop
  endfacet
  facet normal -0 0 -1
    outer loop
      vertex 25.4 152.4 -50.8
      vertex -25.4 50.8 -50.8
      vertex -25.4 152.4 -50.8
    endloop
  endfacet
  facet normal -0 0 1
    outer loop
      vertex -25.4 152.4 50.8
      vertex 25.4 50.8 50.8
      vertex 25.4 152.4 50.8
    endloop
  endfacet
  facet normal 0 0 1
    outer loop
      vertex 25.4 50.8 50.8
      vertex -25.4 152.4 50.8
      vertex -25.4 50.8 50.8
    endloop
  endfacet
  facet normal 0 0 -1
    outer loop
      vertex -25.4 50.8 1023.4
      vertex 25.4 152.4 1023.4
      vertex 25.4 50.8 1023.4
    endloop
  endfacet
  facet normal -0 0 -1
    outer loop
      vertex 25.4 152.4 1023.4
      vertex -25.4 50.8 1023.4
      vertex -25.4 152.4 1023.4
    endloop
  endfacet
  facet normal -0 0 1
    outer loop
      vertex -25.4 254 1125
      vertex 25.4 -50.8 1125
      vertex 25.4 254 1125
    endloop
  endfacet
  facet normal 0 0 1
    outer loop
      vertex 25.4 -50.8 1125
      vertex -25.4 254 1125
      vertex -25.4 -50.8 1125
    endloop
  endfacet
  facet normal 0 1 -0
    outer loop
      vertex 25.4 50.8 -1099.6
      vertex -25.4 50.8 -50.8
      vertex 25.4 50.8 -50.8
    endloop
  endfacet
  facet normal 0 1 0
    outer loop
      vertex -25.4 50.8 -50.8
      vertex 25.4 50.8 -1099.6
      vertex -25.4 50.8 -1099.6
    endloop
  endfacet
  facet normal 0 1 -0
    outer loop
      vertex 25.4 50.8 50.8
      vertex -25.4 50.8 1023.4
      vertex 25.4 50.8 1023.4
    endloop
  endfacet
  facet normal 0 1 0
    outer loop
      vertex -25.4 50.8 1023.4
      vertex 25.4 50.8 50.8
      vertex -25.4 50.8 50.8
    endloop
  endfacet
  facet normal 0 -1 0
    outer loop
      vertex -50.8 -50.8 -1150.4
      vertex -25.4 -50.8 -1099.6
      vertex -50.8 -50.8 -1099.6
    endloop
  endfacet
  facet normal 0 -1 -0
    outer loop
      vertex -25.4 -50.8 -1099.6
      vertex -50.8 -50.8 -1150.4
      vertex 25.4 -50.8 -1099.6
    endloop
  endfacet
  facet normal 0 -1 0
    outer loop
      vertex 549.2 -50.8 -1150.4
      vertex 25.4 -50.8 -1099.6
      vertex -50.8 -50.8 -1150.4
    endloop
  endfacet
  facet normal 0 -1 0
    outer loop
      vertex 25.4 -50.8 -1099.6
      vertex 549.2 -50.8 -1150.4
      vertex 549.2 -50.8 -1099.6
    endloop
  endfacet
  facet normal 0 -1 0
    outer loop
      vertex -25.4 -50.8 -1099.6
      vertex 25.4 -50.8 1125
      vertex -25.4 -50.8 1125
    endloop
  endfacet
  facet normal 0 -1 -0
    outer loop
      vertex 25.4 -50.8 1125
      vertex -25.4 -50.8 -1099.6
      vertex 25.4 -50.8 -1099.6
    endloop
  endfacet
  facet normal 0 1 -0
    outer loop
      vertex 25.4 254 -1099.6
      vertex -25.4 254 1125
      vertex 25.4 254 1125
    endloop
  endfacet
  facet normal 0 1 0
    outer loop
      vertex -25.4 254 1125
      vertex 25.4 254 -1099.6
      vertex -25.4 254 -1099.6
    endloop
  endfacet
  facet normal 0 -1 0
    outer loop
      vertex -25.4 152.4 -1099.6
      vertex 25.4 152.4 -50.8
      vertex -25.4 152.4 -50.8
    endloop
  endfacet
  facet normal 0 -1 -0
    outer loop
      vertex 25.4 152.4 -50.8
      vertex -25.4 152.4 -1099.6
      vertex 25.4 152.4 -1099.6
    endloop
  endfacet
  facet normal 0 -1 0
    outer loop
      vertex -25.4 152.4 50.8
      vertex 25.4 152.4 1023.4
      vertex -25.4 152.4 1023.4
    endloop
  endfacet
  facet normal 0 -1 -0
    outer loop
      vertex 25.4 152.4 1023.4
      vertex -25.4 152.4 50.8
      vertex 25.4 152.4 50.8
    endloop
  endfacet
  facet normal -0 0 1
    outer loop
      vertex -25.4 152.4 -1099.6
      vertex 25.4 50.8 -1099.6
      vertex 25.4 152.4 -1099.6
    endloop
  endfacet
  facet normal 0 0 1
    outer loop
      vertex 25.4 50.8 -1099.6
      vertex -25.4 152.4 -1099.6
      vertex -25.4 50.8 -1099.6
    endloop
  endfacet
  facet normal 0 0 1
    outer loop
      vertex 50.8 549.2 -1099.6
      vertex 25.4 254 -1099.6
      vertex 50.8 50.8 -1099.6
    endloop
  endfacet
  facet normal 0 0 1
    outer loop
      vertex 50.8 549.2 -1099.6
      vertex -25.4 254 -1099.6
      vertex 25.4 254 -1099.6
    endloop
  endfacet
  facet normal 0 0 1
    outer loop
      vertex -50.8 -50.8 -1099.6
      vertex -25.4 152.4 -1099.6
      vertex -25.4 254 -1099.6
    endloop
  endfacet
  facet normal 0 0 1
    outer loop
      vertex -25.4 152.4 -1099.6
      vertex -50.8 -50.8 -1099.6
      vertex -25.4 50.8 -1099.6
    endloop
  endfacet
  facet normal -0 0 1
    outer loop
      vertex -50.8 549.2 -1099.6
      vertex -25.4 254 -1099.6
      vertex 50.8 549.2 -1099.6
    endloop
  endfacet
  facet normal 0 0 1
    outer loop
      vertex -50.8 -50.8 -1099.6
      vertex -25.4 254 -1099.6
      vertex -50.8 549.2 -1099.6
    endloop
  endfacet
  facet normal 0 0 1
    outer loop
      vertex -25.4 50.8 -1099.6
      vertex -50.8 -50.8 -1099.6
      vertex -25.4 -50.8 -1099.6
    endloop
  endfacet
  facet normal -0 0 1
    outer loop
      vertex 50.8 50.8 -1099.6
      vertex 549.2 -50.8 -1099.6
      vertex 549.2 50.8 -1099.6
    endloop
  endfacet
  facet normal -0 0 1
    outer loop
      vertex 25.4 152.4 -1099.6
      vertex 50.8 50.8 -1099.6
      vertex 25.4 254 -1099.6
    endloop
  endfacet
  facet normal 0 0 1
    outer loop
      vertex 25.4 50.8 -1099.6
      vertex 50.8 50.8 -1099.6
      vertex 25.4 152.4 -1099.6
    endloop
  endfacet
  facet normal 0 0 1
    outer loop
      vertex 25.4 -50.8 -1099.6
      vertex 50.8 50.8 -1099.6
      vertex 25.4 50.8 -1099.6
    endloop
  endfacet
  facet normal 0 0 1
    outer loop
      vertex 50.8 50.8 -1099.6
      vertex 25.4 -50.8 -1099.6
      vertex 549.2 -50.8 -1099.6
    endloop
  endfacet
  facet normal 0 0 -1
    outer loop
      vertex 549.2 -50.8 -1150.4
      vertex 50.8 50.8 -1150.4
      vertex 549.2 50.8 -1150.4
    endloop
  endfacet
  facet normal 0 0 -1
    outer loop
      vertex -50.8 -50.8 -1150.4
      vertex 50.8 50.8 -1150.4
      vertex 549.2 -50.8 -1150.4
    endloop
  endfacet
  facet normal 0 0 -1
    outer loop
      vertex -50.8 549.2 -1150.4
      vertex 50.8 50.8 -1150.4
      vertex -50.8 -50.8 -1150.4
    endloop
  endfacet
  facet normal 0 0 -1
    outer loop
      vertex 50.8 50.8 -1150.4
      vertex -50.8 549.2 -1150.4
      vertex 50.8 549.2 -1150.4
    endloop
  endfacet
  facet normal 0 1 -0
    outer loop
      vertex 50.8 549.2 -1150.4
      vertex -50.8 549.2 -1099.6
      vertex 50.8 549.2 -1099.6
    endloop
  endfacet
  facet normal 0 1 0
    outer loop
      vertex -50.8 549.2 -1099.6
      vertex 50.8 549.2 -1150.4
      vertex -50.8 549.2 -1150.4
    endloop
  endfacet
  facet normal -1 0 0
    outer loop
      vertex -50.8 -50.8 -1150.4
      vertex -50.8 549.2 -1099.6
      vertex -50.8 549.2 -1150.4
    endloop
  endfacet
  facet normal -1 -0 0
    outer loop
      vertex -50.8 549.2 -1099.6
      vertex -50.8 -50.8 -1150.4
      vertex -50.8 -50.8 -1099.6
    endloop
  endfacet
  facet normal 1 -0 0
    outer loop
      vertex 50.8 50.8 -1099.6
      vertex 50.8 549.2 -1150.4
      vertex 50.8 549.2 -1099.6
    endloop
  endfacet
  facet normal 1 0 0
    outer loop
      vertex 50.8 549.2 -1150.4
      vertex 50.8 50.8 -1099.6
      vertex 50.8 50.8 -1150.4
    endloop
  endfacet
  facet normal 1 -0 0
    outer loop
      vertex 549.2 -50.8 -1099.6
      vertex 549.2 50.8 -1150.4
      vertex 549.2 50.8 -1099.6
    endloop
  endfacet
  facet normal 1 0 0
    outer loop
      vertex 549.2 50.8 -1150.4
      vertex 549.2 -50.8 -1099.6
      vertex 549.2 -50.8 -1150.4
    endloop
  endfacet
  facet normal 0 1 -0
    outer loop
      vertex 549.2 50.8 -1150.4
      vertex 50.8 50.8 -1099.6
      vertex 549.2 50.8 -1099.6
    endloop
  endfacet
  facet normal 0 1 0
    outer loop
      vertex 50.8 50.8 -1099.6
      vertex 549.2 50.8 -1150.4
      vertex 50.8 50.8 -1150.4
    endloop
  endfacet
  facet normal -1 0 0
    outer loop
      vertex -25.4 949.2 -1099.6
      vertex -25.4 1050.8 -50.8
      vertex -25.4 1050.8 -1099.6
    endloop
  endfacet
  facet normal -1 -0 0
    outer loop
      vertex -25.4 1050.8 -50.8
      vertex -25.4 949.2 -1099.6
      vertex -25.4 1050.8 50.8
    endloop
  endfacet
  facet normal -1 0 0
    outer loop
      vertex -25.4 949.2 1125
      vertex -25.4 1050.8 50.8
      vertex -25.4 949.2 -1099.6
    endloop
  endfacet
  facet normal -1 0 0
    outer loop
      vertex -25.4 1050.8 -50.8
      vertex -25.4 1152.4 50.8
      vertex -25.4 1152.4 -50.8
    endloop
  endfacet
  facet normal -1 -0 0
    outer loop
      vertex -25.4 1152.4 50.8
      vertex -25.4 1050.8 -50.8
      vertex -25.4 1050.8 50.8
    endloop
  endfacet
  facet normal -1 0 0
    outer loop
      vertex -25.4 1152.4 -50.8
      vertex -25.4 1254 -1099.6
      vertex -25.4 1152.4 -1099.6
    endloop
  endfacet
  facet normal -1 0 0
    outer loop
      vertex -25.4 1254 -1099.6
      vertex -25.4 1152.4 -50.8
      vertex -25.4 1254 1125
    endloop
  endfacet
  facet normal -1 0 0
    outer loop
      vertex -25.4 1152.4 50.8
      vertex -25.4 1254 1125
      vertex -25.4 1152.4 -50.8
    endloop
  endfacet
  facet normal -1 0 0
    outer loop
      vertex -25.4 1152.4 1023.4
      vertex -25.4 1254 1125
      vertex -25.4 1152.4 50.8
    endloop
  endfacet
  facet normal -1 0 0
    outer loop
      vertex -25.4 1050.8 1023.4
      vertex -25.4 1254 1125
      vertex -25.4 1152.4 1023.4
    endloop
  endfacet
  facet normal -1 0 0
    outer loop
      vertex -25.4 1050.8 1023.4
      vertex -25.4 949.2 1125
      vertex -25.4 1254 1125
    endloop
  endfacet
  facet normal -1 0 0
    outer loop
      vertex -25.4 1050.8 50.8
      vertex -25.4 949.2 1125
      vertex -25.4 1050.8 1023.4
    endloop
  endfacet
  facet normal 1 -0 0
    outer loop
      vertex 25.4 1050.8 50.8
      vertex 25.4 1152.4 -50.8
      vertex 25.4 1152.4 50.8
    endloop
  endfacet
  facet normal 1 0 0
    outer loop
      vertex 25.4 1152.4 -50.8
      vertex 25.4 1050.8 50.8
      vertex 25.4 1050.8 -50.8
    endloop
  endfacet
  facet normal 1 0 0
    outer loop
      vertex 25.4 1152.4 50.8
      vertex 25.4 1254 1125
      vertex 25.4 1152.4 1023.4
    endloop
  endfacet
  facet normal 1 0 0
    outer loop
      vertex 25.4 1254 1125
      vertex 25.4 1050.8 1023.4
      vertex 25.4 1152.4 1023.4
    endloop
  endfacet
  facet normal 1 0 0
    outer loop
      vertex 25.4 949.2 1125
      vertex 25.4 1050.8 50.8
      vertex 25.4 1050.8 1023.4
    endloop
  endfacet
  facet normal 1 0 0
    outer loop
      vertex 25.4 1050.8 50.8
      vertex 25.4 949.2 1125
      vertex 25.4 1050.8 -50.8
    endloop
  endfacet
  facet normal 1 -0 0
    outer loop
      vertex 25.4 949.2 1125
      vertex 25.4 1050.8 1023.4
      vertex 25.4 1254 1125
    endloop
  endfacet
  facet normal 1 0 0
    outer loop
      vertex 25.4 1050.8 -50.8
      vertex 25.4 949.2 1125
      vertex 25.4 949.2 -1099.6
    endloop
  endfacet
  facet normal 1 0 0
    outer loop
      vertex 25.4 1050.8 -50.8
      vertex 25.4 949.2 -1099.6
      vertex 25.4 1050.8 -1099.6
    endloop
  endfacet
  facet normal 1 0 0
    outer loop
      vertex 25.4 1254 1125
      vertex 25.4 1152.4 50.8
      vertex 25.4 1254 -1099.6
    endloop
  endfacet
  facet normal 1 -0 0
    outer loop
      vertex 25.4 1152.4 -50.8
      vertex 25.4 1254 -1099.6
      vertex 25.4 1152.4 50.8
    endloop
  endfacet
  facet normal 1 0 0
    outer loop
      vertex 25.4 1254 -1099.6
      vertex 25.4 1152.4 -50.8
      vertex 25.4 1152.4 -1099.6
    endloop
  endfacet
  facet normal 0 0 -1
    outer loop
      vertex -25.4 1050.8 -50.8
      vertex 25.4 1152.4 -50.8
      vertex 25.4 1050.8 -50.8
    endloop
  endfacet
  facet normal -0 0 -1
    outer loop
      vertex 25.4 1152.4 -50.8
      vertex -25.4 1050.8 -50.8
      vertex -25.4 1152.4 -50.8
    endloop
  endfacet
  facet normal -0 0 1
    outer loop
      vertex -25.4 1152.4 50.8
      vertex 25.4 1050.8 50.8
      vertex 25.4 1152.4 50.8
    endloop
  endfacet
  facet normal 0 0 1
    outer loop
      vertex 25.4 1050.8 50.8
      vertex -25.4 1152.4 50.8
      vertex -25.4 1050.8 50.8
    endloop
  endfacet
  facet normal 0 0 -1
    outer loop
      vertex -25.4 1050.8 1023.4
      vertex 25.4 1152.4 1023.4
      vertex 25.4 1050.8 1023.4
    endloop
  endfacet
  facet normal -0 0 -1
    outer loop
      vertex 25.4 1152.4 1023.4
      vertex -25.4 1050.8 1023.4
      vertex -25.4 1152.4 1023.4
    endloop
  endfacet
  facet normal -0 0 1
    outer loop
      vertex -25.4 1254 1125
      vertex 25.4 949.2 1125
      vertex 25.4 1254 1125
    endloop
  endfacet
  facet normal 0 0 1
    outer loop
      vertex 25.4 949.2 1125
      vertex -25.4 1254 1125
      vertex -25.4 949.2 1125
    endloop
  endfacet
  facet normal 0 1 -0
    outer loop
      vertex 25.4 1050.8 -1099.6
      vertex -25.4 1050.8 -50.8
      vertex 25.4 1050.8 -50.8
    endloop
  endfacet
  facet normal 0 1 0
    outer loop
      vertex -25.4 1050.8 -50.8
      vertex 25.4 1050.8 -1099.6
      vertex -25.4 1050.8 -1099.6
    endloop
  endfacet
  facet normal 0 1 -0
    outer loop
      vertex 25.4 1050.8 50.8
      vertex -25.4 1050.8 1023.4
      vertex 25.4 1050.8 1023.4
    endloop
  endfacet
  facet normal 0 1 0
    outer loop
      vertex -25.4 1050.8 1023.4
      vertex 25.4 1050.8 50.8
      vertex -25.4 1050.8 50.8
    endloop
  endfacet
  facet normal 0 -1 0
    outer loop
      vertex -25.4 949.2 -1099.6
      vertex 25.4 949.2 1125
      vertex -25.4 949.2 1125
    endloop
  endfacet
  facet normal 0 -1 -0
    outer loop
      vertex 25.4 949.2 1125
      vertex -25.4 949.2 -1099.6
      vertex 25.4 949.2 -1099.6
    endloop
  endfacet
  facet normal 0 1 -0
    outer loop
      vertex 25.4 1254 -1099.6
      vertex -25.4 1254 1125
      vertex 25.4 1254 1125
    endloop
  endfacet
  facet normal 0 1 0
    outer loop
      vertex -25.4 1254 1125
      vertex 25.4 1254 -1099.6
      vertex -25.4 1254 -1099.6
    endloop
  endfacet
  facet normal 0 -1 0
    outer loop
      vertex -25.4 1152.4 -1099.6
      vertex 25.4 1152.4 -50.8
      vertex -25.4 1152.4 -50.8
    endloop
  endfacet
  facet normal 0 -1 -0
    outer loop
      vertex 25.4 1152.4 -50.8
      vertex -25.4 1152.4 -1099.6
      vertex 25.4 1152.4 -1099.6
    endloop
  endfacet
  facet normal 0 -1 0
    outer loop
      vertex -25.4 1152.4 50.8
      vertex 25.4 1152.4 1023.4
      vertex -25.4 1152.4 1023.4
    endloop
  endfacet
  facet normal 0 -1 -0
    outer loop
      vertex 25.4 1152.4 1023.4
      vertex -25.4 1152.4 50.8
      vertex 25.4 1152.4 50.8
    endloop
  endfacet
  facet normal -0 0 1
    outer loop
      vertex -25.4 1152.4 -1099.6
      vertex 25.4 1050.8 -1099.6
      vertex 25.4 1152.4 -1099.6
    endloop
  endfacet
  facet normal 0 0 1
    outer loop
      vertex 25.4 1050.8 -1099.6
      vertex -25.4 1152.4 -1099.6
      vertex -25.4 1050.8 -1099.6
    endloop
  endfacet
  facet normal 0 0 1
    outer loop
      vertex 25.4 1152.4 -1099.6
      vertex 50.8 1451.6 -1099.6
      vertex 25.4 1254 -1099.6
    endloop
  endfacet
  facet normal 0 0 1
    outer loop
      vertex 50.8 1451.6 -1099.6
      vertex -25.4 1254 -1099.6
      vertex 25.4 1254 -1099.6
    endloop
  endfacet
  facet normal 0 0 1
    outer loop
      vertex -50.8 1451.6 -1099.6
      vertex -25.4 1152.4 -1099.6
      vertex -25.4 1254 -1099.6
    endloop
  endfacet
  facet normal 0 0 1
    outer loop
      vertex -25.4 1152.4 -1099.6
      vertex -50.8 1451.6 -1099.6
      vertex -25.4 1050.8 -1099.6
    endloop
  endfacet
  facet normal 0 0 1
    outer loop
      vertex -50.8 751.6 -1099.6
      vertex -25.4 1050.8 -1099.6
      vertex -50.8 1451.6 -1099.6
    endloop
  endfacet
  facet normal -0 0 1
    outer loop
      vertex -50.8 1451.6 -1099.6
      vertex -25.4 1254 -1099.6
      vertex 50.8 1451.6 -1099.6
    endloop
  endfacet
  facet normal 0 0 1
    outer loop
      vertex 50.8 1451.6 -1099.6
      vertex 25.4 1152.4 -1099.6
      vertex 50.8 751.6 -1099.6
    endloop
  endfacet
  facet normal -0 0 1
    outer loop
      vertex 25.4 1050.8 -1099.6
      vertex 50.8 751.6 -1099.6
      vertex 25.4 1152.4 -1099.6
    endloop
  endfacet
  facet normal -0 0 1
    outer loop
      vertex 25.4 949.2 -1099.6
      vertex 50.8 751.6 -1099.6
      vertex 25.4 1050.8 -1099.6
    endloop
  endfacet
  facet normal -0 0 1
    outer loop
      vertex -25.4 949.2 -1099.6
      vertex 50.8 751.6 -1099.6
      vertex 25.4 949.2 -1099.6
    endloop
  endfacet
  facet normal 0 0 1
    outer loop
      vertex -25.4 949.2 -1099.6
      vertex -50.8 751.6 -1099.6
      vertex 50.8 751.6 -1099.6
    endloop
  endfacet
  facet normal 0 0 1
    outer loop
      vertex -25.4 1050.8 -1099.6
      vertex -50.8 751.6 -1099.6
      vertex -25.4 949.2 -1099.6
    endloop
  endfacet
  facet normal 0 -1 0
    outer loop
      vertex -50.8 751.6 -1150.4
      vertex 50.8 751.6 -1099.6
      vertex -50.8 751.6 -1099.6
    endloop
  endfacet
  facet normal 0 -1 -0
    outer loop
      vertex 50.8 751.6 -1099.6
      vertex -50.8 751.6 -1150.4
      vertex 50.8 751.6 -1150.4
    endloop
  endfacet
  facet normal 0 1 -0
    outer loop
      vertex 50.8 1451.6 -1150.4
      vertex -50.8 1451.6 -1099.6
      vertex 50.8 1451.6 -1099.6
    endloop
  endfacet
  facet normal 0 1 0
    outer loop
      vertex -50.8 1451.6 -1099.6
      vertex 50.8 1451.6 -1150.4
      vertex -50.8 1451.6 -1150.4
    endloop
  endfacet
  facet normal -1 0 0
    outer loop
      vertex -50.8 751.6 -1150.4
      vertex -50.8 1451.6 -1099.6
      vertex -50.8 1451.6 -1150.4
    endloop
  endfacet
  facet normal -1 -0 0
    outer loop
      vertex -50.8 1451.6 -1099.6
      vertex -50.8 751.6 -1150.4
      vertex -50.8 751.6 -1099.6
    endloop
  endfacet
  facet normal 1 -0 0
    outer loop
      vertex 50.8 751.6 -1099.6
      vertex 50.8 1451.6 -1150.4
      vertex 50.8 1451.6 -1099.6
    endloop
  endfacet
  facet normal 1 0 0
    outer loop
      vertex 50.8 1451.6 -1150.4
      vertex 50.8 751.6 -1099.6
      vertex 50.8 751.6 -1150.4
    endloop
  endfacet
  facet normal 0 0 -1
    outer loop
      vertex -50.8 751.6 -1150.4
      vertex 50.8 1451.6 -1150.4
      vertex 50.8 751.6 -1150.4
    endloop
  endfacet
  facet normal -0 0 -1
    outer loop
      vertex 50.8 1451.6 -1150.4
      vertex -50.8 751.6 -1150.4
      vertex -50.8 1451.6 -1150.4
    endloop
  endfacet
endsolid OpenSCAD_Model
